<svg width="20" height="21" viewBox="0 0 20 21" fill="none" xmlns="http://www.w3.org/2000/svg">
    <g clip-path="url(#clip0_8202_962)">
        <path d="M2.5326 15.5354L2.53261 15.5355L2.5369 15.5331C4.74224 14.3037 7.28518 13.5996 10 13.5996H10.01C12.7248 13.5996 15.2678 14.3037 17.4731 15.5331L17.4736 15.5333C18.1067 15.8858 18.51 16.5892 18.51 17.3596C18.51 18.525 17.5502 19.4896 16.34 19.4896H3.67C2.45984 19.4896 1.5 18.525 1.5 17.3596C1.5 16.5841 1.89718 15.8856 2.5326 15.5354Z" stroke="#03713A" stroke-width="2"/>
        <path d="M13.5 4.5C13.5 6.433 11.933 8 10 8C8.067 8 6.5 6.433 6.5 4.5C6.5 2.567 8.067 1 10 1C11.933 1 13.5 2.567 13.5 4.5Z" stroke="#03713A" stroke-width="2"/>
    </g>
    <defs>
        <clipPath id="clip0_8202_962">
            <rect width="19" height="20.5" fill="white" transform="translate(0.5)"/>
        </clipPath>
    </defs>
</svg>
